<svg width="219" height="50" viewBox="0 0 219 50" fill="none" xmlns="http://www.w3.org/2000/svg">
<g clip-path="url(#clip0_8_387)">
<path d="M12.4393 27.4636L24.2438 39.794H0.634766L12.4393 27.4636Z" fill="#FF2638"/>
<path d="M0.634766 15.1333L12.4393 27.4637L24.2438 15.1333H0.634766Z" fill="#FFC600"/>
<path d="M12.4414 27.4637L24.2459 39.7941L36.0504 27.4637L24.2459 15.1333L12.4414 27.4637Z" fill="#0079F2"/>
<path d="M214.266 20.9774C214.266 21.1565 214.032 21.2351 213.922 21.0982C213.059 20.0332 211.632 19.226 209.68 19.226C205.455 19.226 203.053 22.8456 203.053 27.2281C203.053 31.5825 205.455 35.2001 209.68 35.2001C211.659 35.2001 213.205 34.4653 214.165 33.1971C214.273 33.0562 214.514 33.1327 214.514 33.3138V34.6687C214.514 34.7693 214.59 34.8499 214.683 34.8499H217.381C217.476 34.8499 217.552 34.7693 217.552 34.6687V12.9651C217.552 12.9171 217.534 12.871 217.502 12.837C217.47 12.803 217.426 12.7839 217.381 12.7839H214.435C214.39 12.7845 214.347 12.8038 214.315 12.8377C214.283 12.8716 214.266 12.9174 214.266 12.9651V20.9774ZM214.402 27.2281C214.402 29.966 212.885 32.112 210.371 32.112C207.885 32.112 206.339 29.964 206.339 27.2281C206.339 24.4339 207.885 22.3161 210.371 22.3161C212.885 22.3161 214.402 24.4339 214.402 27.2281ZM202.234 19.6286C202.234 19.5834 202.218 19.5398 202.189 19.5066C202.16 19.4734 202.12 19.453 202.078 19.4494C201.973 19.4409 201.868 19.4355 201.763 19.4333C199.733 19.4333 198.551 20.2969 197.9 21.1425C197.79 21.2834 197.538 21.2069 197.538 21.0217V19.7594C197.538 19.7117 197.52 19.6659 197.489 19.632C197.457 19.5981 197.414 19.5788 197.369 19.5782H194.669C194.624 19.5788 194.581 19.5981 194.55 19.632C194.518 19.6659 194.5 19.7117 194.5 19.7594V34.6687C194.5 34.7693 194.576 34.8499 194.669 34.8499H197.618C197.663 34.8493 197.705 34.83 197.737 34.7961C197.769 34.7622 197.786 34.7164 197.786 34.6687V26.906C197.786 23.9628 199.168 22.6684 201.488 22.6684C201.685 22.6684 201.894 22.6885 202.038 22.7026C202.062 22.7054 202.087 22.7028 202.11 22.6951C202.133 22.6873 202.155 22.6745 202.173 22.6575C202.192 22.6405 202.206 22.6196 202.217 22.5962C202.227 22.5728 202.233 22.5473 202.234 22.5214V19.6286ZM188.317 27.7012C188.342 27.6975 188.366 27.6993 188.39 27.7066C188.413 27.7139 188.435 27.7264 188.454 27.7434C188.472 27.7604 188.487 27.7814 188.497 27.8051C188.507 27.8287 188.513 27.8544 188.513 27.8804V28.6414C188.513 30.7008 187.215 32.4663 184.563 32.4663C182.988 32.4663 182.021 31.9067 182.021 30.4653C182.021 29.4064 182.685 28.6132 184.701 28.2871L188.317 27.7032V27.7012ZM183.901 35.2022C185.944 35.2022 187.481 34.57 188.477 33.3299C188.585 33.1931 188.822 33.2695 188.83 33.4507C188.869 34.3264 188.987 34.8478 189.01 34.8478H191.873C191.994 34.8478 192.08 34.715 192.042 34.5922C191.842 33.9238 191.715 32.8408 191.715 31.965V24.9332C191.715 21.4323 189.727 19.226 185.53 19.226C181.301 19.226 179.569 21.5773 179.228 24.1762C179.225 24.2012 179.227 24.2265 179.235 24.2505C179.242 24.2745 179.254 24.2966 179.269 24.3154C179.285 24.3342 179.304 24.3493 179.326 24.3596C179.348 24.37 179.371 24.3754 179.395 24.3755H182.265C182.349 24.3755 182.417 24.3111 182.436 24.2246C182.703 22.9019 183.717 22.1108 185.447 22.1108C187.407 22.1108 188.513 23.0509 188.513 24.905V24.9835C188.513 25.027 188.498 25.069 188.471 25.1019C188.444 25.1348 188.407 25.1564 188.367 25.1627L184.369 25.7586C180.586 26.3162 178.875 27.9931 178.875 30.582C178.875 33.1991 180.338 35.2022 183.901 35.2022V35.2022ZM170.176 35.2022C174.76 35.2022 177.632 31.5242 177.632 27.2302C177.632 22.9341 174.76 19.226 170.176 19.226C165.619 19.226 162.749 22.9341 162.749 27.2281C162.749 31.5242 165.619 35.2001 170.176 35.2001V35.2022ZM166.035 27.2302C166.035 24.2568 167.801 22.3161 170.176 22.3161C172.58 22.3161 174.346 24.2568 174.346 27.2281C174.346 30.1713 172.58 32.112 170.176 32.112C167.801 32.112 166.035 30.1713 166.035 27.2281V27.2302ZM150.646 21.0982C150.536 21.2351 150.305 21.1565 150.305 20.9774V12.9651C150.305 12.9171 150.287 12.871 150.255 12.837C150.223 12.803 150.179 12.7839 150.134 12.7839H147.188C147.142 12.7839 147.099 12.803 147.067 12.837C147.035 12.871 147.017 12.9171 147.017 12.9651V34.6667C147.017 34.7673 147.093 34.8478 147.188 34.8478H149.885C149.98 34.8478 150.056 34.7673 150.056 34.6667V33.2977C150.056 33.1165 150.291 33.0401 150.398 33.181C151.378 34.4593 152.927 35.2022 154.888 35.2022C159.14 35.2022 161.544 31.5825 161.544 27.2302C161.544 22.8456 159.14 19.226 154.888 19.226C152.959 19.226 151.515 20.0332 150.646 21.0982V21.0982ZM150.193 27.2281C150.193 24.4339 151.71 22.3161 154.224 22.3161C156.71 22.3161 158.258 24.4339 158.258 27.2281C158.258 29.966 156.71 32.112 154.224 32.112C151.712 32.112 150.193 29.964 150.193 27.2281V27.2281ZM144.226 31.9711C144.225 31.9428 144.218 31.915 144.206 31.8897C144.194 31.8645 144.177 31.8423 144.156 31.8248C144.135 31.8074 144.111 31.795 144.085 31.7886C144.059 31.7822 144.032 31.782 144.006 31.7879C143.816 31.8281 143.524 31.8785 143.205 31.8785C142.073 31.8785 141.604 31.2886 141.604 30.0828V22.5537C141.604 22.506 141.623 22.4604 141.655 22.4268C141.687 22.3933 141.73 22.3745 141.775 22.3745H144.112C144.207 22.3745 144.283 22.294 144.283 22.1933V19.7635C144.283 19.7154 144.265 19.6693 144.233 19.6353C144.201 19.6014 144.157 19.5823 144.112 19.5823H141.773C141.75 19.5823 141.728 19.5776 141.707 19.5685C141.687 19.5594 141.668 19.546 141.652 19.5292C141.636 19.5124 141.624 19.4924 141.615 19.4704C141.607 19.4484 141.602 19.4249 141.602 19.4011V15.7916C141.602 15.7438 141.584 15.6981 141.553 15.6641C141.521 15.6302 141.478 15.6109 141.433 15.6104H138.487C138.442 15.6104 138.398 15.6295 138.366 15.6634C138.334 15.6974 138.316 15.7435 138.316 15.7916V19.4031C138.316 19.4269 138.312 19.4505 138.303 19.4724C138.295 19.4944 138.282 19.5144 138.266 19.5312C138.25 19.548 138.231 19.5614 138.211 19.5705C138.19 19.5796 138.168 19.5843 138.145 19.5843H136.305C136.26 19.5843 136.217 19.6031 136.185 19.6366C136.153 19.6702 136.135 19.7158 136.134 19.7635V22.1973C136.134 22.298 136.21 22.3785 136.305 22.3785H138.145C138.24 22.3785 138.316 22.459 138.316 22.5577V30.4391C138.316 33.3219 139.587 34.9404 142.515 34.9404C143.327 34.9404 143.869 34.8438 144.101 34.7935C144.137 34.7851 144.169 34.7636 144.192 34.7328C144.215 34.7019 144.227 34.6636 144.226 34.6244V31.9711V31.9711ZM121.046 27.2281C121.046 31.6409 123.973 35.2001 128.198 35.2001C132.346 35.2001 134.497 32.2086 134.96 29.5231C134.964 29.4977 134.963 29.4717 134.957 29.4468C134.95 29.4219 134.939 29.3989 134.923 29.3792C134.907 29.3596 134.887 29.3439 134.865 29.3333C134.843 29.3227 134.819 29.3174 134.795 29.3178H131.756C131.717 29.3181 131.68 29.3317 131.65 29.3564C131.62 29.3811 131.598 29.4156 131.589 29.4547C131.164 31.0269 129.889 32.112 128.17 32.112C125.823 32.112 124.332 30.0828 124.332 27.2281C124.332 24.3453 125.823 22.3161 128.17 22.3161C129.889 22.3161 131.164 23.4012 131.589 24.9734C131.609 25.054 131.678 25.1103 131.756 25.1103H134.795C134.819 25.1107 134.843 25.1054 134.865 25.0948C134.887 25.0842 134.907 25.0685 134.923 25.0489C134.939 25.0293 134.95 25.0062 134.957 24.9813C134.963 24.9564 134.964 24.9304 134.96 24.905C134.497 22.2195 132.346 19.228 128.198 19.228C123.973 19.228 121.046 22.7872 121.046 27.2281V27.2281ZM115.511 28.3756C115.511 30.8759 114.242 32.2006 112.199 32.2006C110.211 32.2006 109.41 30.8176 109.41 28.7299V19.7594C109.41 19.7114 109.392 19.6653 109.36 19.6313C109.328 19.5973 109.285 19.5782 109.239 19.5782H106.293C106.248 19.5782 106.204 19.5973 106.172 19.6313C106.14 19.6653 106.122 19.7114 106.122 19.7594V29.201C106.122 32.7602 107.919 35.2001 111.396 35.2001C113.328 35.2001 114.646 34.4291 115.384 33.4729C115.496 33.3279 115.762 33.4105 115.762 33.5977V34.6687C115.762 34.7693 115.838 34.8499 115.933 34.8499H118.629C118.723 34.8499 118.799 34.7693 118.799 34.6687V19.7594C118.799 19.7114 118.781 19.6653 118.749 19.6313C118.717 19.5973 118.674 19.5782 118.629 19.5782H115.682C115.637 19.5782 115.594 19.5973 115.561 19.6313C115.529 19.6653 115.511 19.7114 115.511 19.7594V28.3756ZM100.315 20.9774C100.315 21.1565 100.081 21.2351 99.9713 21.0982C99.1081 20.0332 97.6814 19.226 95.7292 19.226C91.504 19.226 89.1003 22.8456 89.1003 27.2281C89.1003 31.5825 91.504 35.2001 95.7292 35.2001C97.7061 35.2001 99.2523 34.4653 100.214 33.1971C100.322 33.0562 100.561 33.1327 100.561 33.3138V34.6687C100.561 34.7693 100.637 34.8499 100.732 34.8499H103.43C103.525 34.8499 103.601 34.7693 103.601 34.6687V12.9651C103.601 12.9171 103.583 12.871 103.551 12.837C103.519 12.803 103.475 12.7839 103.43 12.7839H100.484C100.438 12.7839 100.395 12.803 100.363 12.837C100.331 12.871 100.313 12.9171 100.313 12.9651V20.9774H100.315ZM100.451 27.2281C100.451 29.966 98.9336 32.112 96.4197 32.112C93.9344 32.112 92.3862 29.964 92.3862 27.2281C92.3862 24.4339 93.9344 22.3161 96.4197 22.3161C98.9317 22.3161 100.451 24.4339 100.451 27.2281ZM80.318 35.2022C84.9036 35.2022 87.7741 31.5242 87.7741 27.2302C87.7741 22.9321 84.9055 19.226 80.318 19.226C75.7628 19.226 72.8904 22.9341 72.8904 27.2281C72.8904 31.5242 75.7628 35.2001 80.318 35.2001V35.2022ZM76.1764 27.2302C76.1764 24.2568 77.9427 22.3161 80.318 22.3161C82.7218 22.3161 84.4881 24.2568 84.4881 27.2281C84.4881 30.1713 82.7218 32.112 80.318 32.112C77.9427 32.112 76.1764 30.1713 76.1764 27.2281V27.2302ZM72.5128 19.6286C72.513 19.5834 72.497 19.5398 72.4682 19.5066C72.4393 19.4734 72.3997 19.453 72.3573 19.4494C72.2531 19.4409 72.1487 19.4355 72.0442 19.4333C70.0142 19.4333 68.8303 20.2969 68.1796 21.1425C68.0696 21.2834 67.8191 21.2069 67.8191 21.0217V19.7594C67.8191 19.7114 67.8011 19.6653 67.7691 19.6313C67.7371 19.5973 67.6937 19.5782 67.6484 19.5782H64.9505C64.9052 19.5782 64.8618 19.5973 64.8298 19.6313C64.7978 19.6653 64.7798 19.7114 64.7798 19.7594V34.6687C64.7798 34.7693 64.8557 34.8499 64.9505 34.8499H67.8969C67.9918 34.8499 68.0677 34.7693 68.0677 34.6687V26.906C68.0677 23.9628 69.4469 22.6684 71.7672 22.6684C71.9664 22.6684 72.1732 22.6885 72.3174 22.7026C72.3417 22.7054 72.3662 22.7028 72.3895 22.6951C72.4127 22.6873 72.4342 22.6745 72.4526 22.6575C72.4709 22.6405 72.4858 22.6196 72.4961 22.5962C72.5065 22.5728 72.5122 22.5473 72.5128 22.5214V19.6286ZM51.5106 33.4628C51.5106 33.2816 51.7459 33.2031 51.8578 33.342C52.7248 34.419 54.1686 35.2022 56.0962 35.2022C60.3479 35.2022 62.7516 31.5825 62.7516 27.2302C62.7516 22.8456 60.3479 19.226 56.0962 19.226C54.1326 19.226 52.5844 19.993 51.6036 21.2592C51.4973 21.3981 51.2621 21.3196 51.2621 21.1384V19.7594C51.2621 19.7114 51.2441 19.6653 51.2121 19.6313C51.18 19.5973 51.1366 19.5782 51.0913 19.5782H48.3954C48.3501 19.5782 48.3066 19.5973 48.2746 19.6313C48.2426 19.6653 48.2246 19.7114 48.2246 19.7594V40.7866C48.2246 40.8872 48.3005 40.9678 48.3954 40.9678H51.3417C51.4366 40.9678 51.5125 40.8872 51.5125 40.7866V33.4628H51.5106ZM51.4006 27.2281C51.4006 24.4037 52.9183 22.2557 55.4322 22.2557C57.9175 22.2557 59.4657 24.4037 59.4657 27.2281C59.4657 29.966 57.9175 32.112 55.4322 32.112C52.9202 32.112 51.4006 29.964 51.4006 27.2281Z" fill="#000C2C"/>
</g>
<defs>
<clipPath id="clip0_8_387">
<rect width="218.181" height="48.3151" fill="white" transform="translate(0.634766 0.705078)"/>
</clipPath>
</defs>
</svg>
