<svg width="163" height="50" viewBox="0 0 163 50" fill="none" xmlns="http://www.w3.org/2000/svg">
<g clip-path="url(#clip0_8_388)">
<path fill-rule="evenodd" clip-rule="evenodd" d="M60.2587 22.6776L57.3136 21.9995C55.8399 21.6605 55.0285 20.696 55.0285 19.2827C55.0285 17.4865 56.5315 16.1314 58.5249 16.1314C61.2833 16.1314 62.0978 18.2848 62.2823 18.9456C62.3408 19.1653 62.4848 19.3515 62.6782 19.4541C62.8672 19.5568 63.0787 19.5721 63.2812 19.4971L64.8337 18.916C65.02 18.8458 65.1741 18.7027 65.2644 18.516C65.3548 18.3293 65.3745 18.113 65.3196 17.9114C64.9192 16.4169 63.4477 12.9409 58.4574 12.9409C54.7631 12.9409 51.6447 15.9395 51.6447 19.4895C51.6447 22.5405 53.5315 24.7942 56.6935 25.5247L59.5014 26.1741C61.1915 26.5513 62.2013 27.6447 62.2013 29.0962C62.2013 30.9488 60.7658 32.0995 58.4529 32.0995C55.735 32.0995 54.4256 30.2087 54.1061 28.4373C54.0859 28.3231 54.043 28.2147 53.9804 28.1194C53.9177 28.0241 53.8367 27.944 53.7427 27.8844C53.6487 27.8248 53.5438 27.7871 53.435 27.7738C53.3262 27.7604 53.216 27.7718 53.1116 27.807L51.4062 28.3848C51.2269 28.4427 51.0741 28.5688 50.977 28.7388C50.8799 28.9088 50.8452 29.1109 50.8797 29.3063C51.4107 32.2428 53.6844 35.375 58.4844 35.375C62.5405 35.375 65.5995 32.5722 65.5995 28.8575C65.5995 25.7205 63.6484 23.4668 60.2447 22.6694L60.2587 22.6776ZM77.6825 25.5343C77.6915 25.5963 77.6645 25.6441 77.6465 25.6632C77.6316 25.6828 77.6127 25.6985 77.5913 25.7092C77.5698 25.72 77.5464 25.7255 77.5227 25.7253H71.268C71.2431 25.7253 71.2185 25.7193 71.1961 25.7077C71.1737 25.6961 71.1541 25.6792 71.1388 25.6584C71.1246 25.641 71.1143 25.6202 71.1088 25.5979C71.1034 25.5755 71.1028 25.5521 71.1073 25.5295C71.3931 24.1458 72.5113 22.7506 74.3652 22.7506C76.1863 22.7506 77.4251 23.7867 77.6793 25.5262L77.6825 25.5343ZM74.3409 19.6518C71.047 19.6518 67.6407 22.5739 67.6407 27.468C67.6407 29.8268 68.3696 31.8417 69.7511 33.2884C71.0308 34.6301 72.7794 35.3702 74.6739 35.3702C77.4953 35.3702 79.7812 33.806 80.7891 31.1876C80.8701 30.9727 80.8656 30.734 80.7783 30.5239C80.7353 30.4219 80.6729 30.3305 80.5951 30.2552C80.5173 30.18 80.4257 30.1226 80.3261 30.0865L78.9492 29.5804C78.7649 29.5132 78.5635 29.5223 78.3853 29.6057C78.207 29.6892 78.065 29.8409 77.9875 30.0306C77.3936 31.5156 76.2776 32.2652 74.6712 32.2652C72.7272 32.2652 71.2468 30.8758 70.9903 28.8069C70.9871 28.7837 70.9888 28.7601 70.9955 28.7378C71.0021 28.7154 71.0134 28.695 71.0286 28.678C71.0466 28.6541 71.0871 28.6159 71.1501 28.6159H80.2775C80.687 28.6159 81.029 28.2769 81.0515 27.8443C81.0605 27.7058 81.065 27.553 81.065 27.4022C81.065 22.6179 78.4866 19.6466 74.3377 19.6466L74.3409 19.6518ZM89.8833 31.264C87.6919 31.264 86.3284 29.6501 86.3284 27.0526C86.3284 24.4934 87.7234 22.8394 89.8833 22.8394C91.9757 22.8394 93.3814 24.5297 93.3814 27.0507C93.3814 29.5689 91.9748 31.262 89.8828 31.262L89.8833 31.264ZM95.724 20.0911H94.0726C93.6451 20.0911 93.2964 20.4602 93.2964 20.9362C93.2962 20.9699 93.2868 21.0028 93.2692 21.0308C93.2516 21.0588 93.2266 21.0807 93.1974 21.0938C93.1659 21.1081 93.1029 21.1272 93.0462 21.0699C92.1957 20.2448 90.9988 19.8261 89.4913 19.8261C85.7551 19.8261 83.0431 22.8676 83.0431 27.055C83.0431 31.2243 85.7551 34.2506 89.4913 34.2506C90.8728 34.2506 92.1237 33.7693 93.0147 32.8955C93.0732 32.8382 93.1362 32.8525 93.1677 32.8668C93.1902 32.8764 93.2667 32.9194 93.2667 33.0244V33.626C93.2667 36.5386 92.0652 37.897 89.4913 37.897C87.8579 37.897 86.5754 36.8227 86.229 35.162C86.184 34.9472 86.0625 34.7657 85.887 34.6497C85.7115 34.5337 85.5 34.4969 85.2975 34.5447L83.6758 34.941C83.4766 34.9913 83.304 35.1225 83.1951 35.3065C83.0862 35.4904 83.0497 35.7124 83.0935 35.9246C83.674 38.9422 86.2461 40.9715 89.4877 40.9715C91.9041 40.9715 93.7446 40.1908 94.9595 38.6509C95.963 37.378 96.494 35.6109 96.494 33.5405V20.9271C96.494 20.4735 96.1475 20.1059 95.72 20.1059L95.724 20.0911ZM115.357 19.6785C113.53 19.6785 112.044 20.41 111.058 21.7985C111.041 21.8242 111.018 21.8449 110.992 21.8587C110.966 21.8724 110.936 21.8786 110.907 21.8768C110.885 21.8771 110.864 21.8713 110.845 21.86C110.826 21.8487 110.81 21.8322 110.799 21.8124C109.972 20.4563 108.545 19.6781 106.884 19.6781C105.562 19.6781 104.292 20.1708 103.398 21.0317C103.376 21.0556 103.348 21.0717 103.317 21.0777C103.286 21.0837 103.255 21.0793 103.227 21.0651C103.199 21.0531 103.176 21.0323 103.159 21.0057C103.143 20.979 103.135 20.9478 103.137 20.9162C103.137 20.4626 102.788 20.0949 102.361 20.0949H100.792C100.365 20.0949 100.018 20.4626 100.018 20.9162V34.1087C100.018 34.5623 100.367 34.931 100.794 34.931H102.445C102.873 34.931 103.219 34.5604 103.219 34.1068V26.0647C103.219 24.1105 104.344 22.7969 106.023 22.7969C108.219 22.7969 108.547 24.6242 108.547 25.7129V34.1212C108.547 34.5748 108.894 34.9424 109.321 34.9424H111.001C111.428 34.9424 111.775 34.5728 111.775 34.1192V26.0361C111.775 24.1281 112.918 22.796 114.551 22.796C116.749 22.796 117.076 24.6247 117.076 25.7133V34.1216C117.076 34.5752 117.422 34.9429 117.85 34.9429H119.501C119.929 34.9429 120.275 34.5733 120.275 34.1197V25.4154C120.275 21.4619 117.805 19.6938 115.357 19.6938V19.6785ZM126.521 25.7367C126.496 25.7366 126.472 25.7307 126.449 25.7193C126.427 25.7079 126.407 25.6913 126.392 25.6708C126.378 25.6534 126.368 25.6329 126.363 25.6109C126.358 25.5889 126.358 25.566 126.362 25.5438C126.648 24.1592 127.766 22.7649 129.622 22.7649C131.442 22.7649 132.682 23.801 132.935 25.539C132.944 25.6011 132.916 25.6489 132.899 25.668C132.883 25.6857 132.864 25.7 132.843 25.7098C132.822 25.7196 132.799 25.7249 132.776 25.7253H126.521V25.7367ZM129.594 19.6633C126.3 19.6633 122.894 22.5873 122.894 27.4795C122.894 29.8411 123.623 31.8546 125.003 33.3028C126.281 34.6445 128.026 35.3798 129.925 35.3798C132.742 35.3798 135.028 33.8137 136.041 31.1923C136.122 30.9775 136.117 30.7387 136.027 30.5286C135.937 30.3186 135.775 30.1658 135.573 30.0894L134.196 29.5842C133.813 29.4443 133.39 29.6415 133.234 30.034C132.64 31.5151 131.524 32.2686 129.917 32.2686C127.973 32.2686 126.493 30.8762 126.236 28.8069C126.233 28.7835 126.234 28.7595 126.241 28.7368C126.247 28.714 126.258 28.6929 126.272 28.6751C126.29 28.6512 126.331 28.6154 126.394 28.6154H135.524C135.934 28.6154 136.274 28.2764 136.298 27.8433C136.306 27.7049 136.312 27.5521 136.312 27.3993C136.312 22.615 133.733 19.6403 129.584 19.6403L129.594 19.6633ZM146.14 19.6933C144.743 19.6933 143.518 20.1985 142.599 21.1544C142.578 21.1769 142.551 21.1922 142.521 21.1982C142.492 21.2041 142.461 21.2005 142.434 21.1878C142.406 21.1747 142.382 21.1531 142.365 21.1256C142.348 21.0981 142.339 21.0659 142.339 21.0331V20.9281C142.339 20.4745 141.991 20.1068 141.564 20.1068H139.944C139.516 20.1068 139.168 20.4745 139.168 20.9281V34.1183C139.168 34.5719 139.515 34.941 139.942 34.941H141.62C142.048 34.941 142.397 34.5709 142.397 34.1173V26.4171C142.397 24.6944 143.132 22.8533 145.2 22.8533C147.058 22.8533 148.002 23.9433 148.002 26.0929V34.1145C148.002 34.5681 148.348 34.9357 148.776 34.9357H150.454C150.881 34.9357 151.229 34.5633 151.229 34.1097V25.6207C151.229 21.9633 149.277 19.6905 146.14 19.6905L146.14 19.6933ZM159.05 23.2658H161.007C161.434 23.2658 161.781 22.8958 161.781 22.4426V20.9271C161.781 20.4735 161.434 20.1059 161.007 20.1059H159.05C159.029 20.1059 159.008 20.1016 158.989 20.0932C158.97 20.0848 158.953 20.0725 158.938 20.0569C158.924 20.0414 158.912 20.023 158.904 20.0027C158.896 19.9824 158.892 19.9607 158.892 19.9388V16.4465C158.892 15.9929 158.543 15.6243 158.116 15.6243H156.658C156.23 15.6243 155.884 15.9929 155.884 16.4465V18.2514C155.884 19.0965 155.579 20.1054 154.134 20.1054H153.886C153.458 20.1054 153.112 20.4731 153.112 20.9267V22.4402C153.112 22.8938 153.459 23.2615 153.886 23.2615H155.51C155.598 23.2615 155.668 23.3331 155.668 23.4286V30.7196C155.668 33.4126 157.213 35.0837 159.699 35.0837C160.392 35.0837 160.931 34.9787 161.191 34.9166C161.542 34.8307 161.789 34.5012 161.789 34.1145V32.7112C161.788 32.5957 161.765 32.4816 161.721 32.3762C161.677 32.2708 161.612 32.1765 161.531 32.0994C161.45 32.0223 161.355 31.9641 161.251 31.9285C161.148 31.893 161.038 31.881 160.93 31.8933C160.755 31.9124 160.584 31.9233 160.451 31.9233C159.322 31.9233 158.899 31.4841 158.899 30.3047V23.4291C158.899 23.3374 158.971 23.2629 159.056 23.2629" fill="#43AF79"/>
<path fill-rule="evenodd" clip-rule="evenodd" d="M18.7332 41.9743C16.9765 41.9743 15.2413 41.6974 13.5764 41.1497C13.1205 40.9998 12.7393 40.6639 12.5168 40.2158C12.2943 39.7677 12.2486 39.2442 12.3898 38.7604C12.6841 37.7482 13.6947 37.1848 14.642 37.4999C15.9613 37.9344 17.3374 38.154 18.7332 38.154C24.8408 38.154 30.1438 33.9952 31.9298 27.8024C31.9989 27.5626 32.1119 27.3396 32.2624 27.1462C32.4128 26.9528 32.5976 26.7928 32.8064 26.6752C33.0152 26.5577 33.2437 26.485 33.479 26.4613C33.7143 26.4376 33.9516 26.4634 34.1775 26.5371C35.1279 26.8427 35.6624 27.9122 35.3717 28.9197C33.12 36.7269 26.4333 41.9743 18.7332 41.9743Z" fill="#43AF79"/>
<path fill-rule="evenodd" clip-rule="evenodd" d="M3.81629 20.572C3.53478 20.5721 3.25718 20.502 3.0058 20.3676C2.75442 20.2331 2.53627 20.038 2.36888 19.7978C2.20149 19.5576 2.08952 19.2791 2.04197 18.9847C1.99442 18.6903 2.01262 18.3881 2.09511 18.1025C4.34727 10.2959 11.034 5.05225 18.7332 5.05225C20.4913 5.05225 22.2264 5.32918 23.89 5.87732C24.1158 5.95155 24.3256 6.07224 24.5074 6.23251C24.6893 6.39279 24.8396 6.58949 24.9498 6.81141C25.06 7.03332 25.1279 7.27609 25.1496 7.52585C25.1714 7.77562 25.1466 8.02749 25.0766 8.26707C25.0069 8.5068 24.8932 8.72958 24.7422 8.92264C24.5912 9.11571 24.4058 9.27526 24.1966 9.39218C23.9874 9.50909 23.7585 9.58106 23.5231 9.60398C23.2876 9.62689 23.0502 9.60028 22.8244 9.52569C21.506 9.09597 20.129 8.87633 18.7332 8.87633C12.6269 8.87633 7.323 13.0351 5.53702 19.2279C5.42414 19.6188 5.19615 19.9609 4.88653 20.2041C4.57691 20.4473 4.20196 20.5788 3.81674 20.5792" fill="#43AF79"/>
<path fill-rule="evenodd" clip-rule="evenodd" d="M23.3575 30.2746H1.79163C0.797167 30.2746 -0.00830078 29.4199 -0.00830078 28.3647C-0.00830078 27.3095 0.797167 26.4548 1.79163 26.4548H23.3575C24.3519 26.4548 25.1574 27.3095 25.1574 28.3647C25.1574 29.4199 24.3519 30.2746 23.3575 30.2746Z" fill="#93C8A2"/>
<path fill-rule="evenodd" clip-rule="evenodd" d="M35.6753 20.5713H14.1103C13.1159 20.5713 12.3104 19.7166 12.3104 18.6614C12.3104 17.6062 13.1159 16.7515 14.1103 16.7515H35.6753C36.6697 16.7515 37.4752 17.6062 37.4752 18.6614C37.4752 19.7166 36.6697 20.5713 35.6753 20.5713Z" fill="#93C8A2"/>
<path fill-rule="evenodd" clip-rule="evenodd" d="M31.2169 11.3833C31.2169 11.8898 31.0272 12.3756 30.6897 12.7338C30.3521 13.092 29.8943 13.2932 29.4169 13.2932C28.9396 13.2932 28.4817 13.092 28.1442 12.7338C27.8066 12.3756 27.617 11.8898 27.617 11.3833C27.617 10.8767 27.8066 10.391 28.1442 10.0328C28.4817 9.67461 28.9396 9.47339 29.4169 9.47339C29.8943 9.47339 30.3521 9.67461 30.6897 10.0328C31.0272 10.391 31.2169 10.8767 31.2169 11.3833ZM9.84946 35.6456C9.84946 36.1521 9.65982 36.6379 9.32227 36.9961C8.98472 37.3543 8.5269 37.5555 8.04953 37.5555C7.57216 37.5555 7.11434 37.3543 6.77679 36.9961C6.43924 36.6379 6.2496 36.1521 6.2496 35.6456C6.2496 35.1391 6.43924 34.6533 6.77679 34.2951C7.11434 33.9369 7.57216 33.7357 8.04953 33.7357C8.5269 33.7357 8.98472 33.9369 9.32227 34.2951C9.65982 34.6533 9.84946 35.1391 9.84946 35.6456Z" fill="#93C8A2"/>
</g>
<defs>
<clipPath id="clip0_8_388">
<rect width="162.212" height="48.3151" fill="white" transform="translate(-0.00830078 0.705078)"/>
</clipPath>
</defs>
</svg>
