<svg width="155" height="50" viewBox="0 0 155 50" fill="none" xmlns="http://www.w3.org/2000/svg">
<g clip-path="url(#clip0_8_384)">
<path d="M9.65025 32.9153C8.83766 32.0493 8.19484 31.0224 7.75859 29.8936C7.32234 28.7648 7.10124 27.5562 7.10795 26.3369C7.105 25.1178 7.33222 23.9102 7.77633 22.7849C8.22045 21.6596 8.87254 20.639 9.69448 19.783C10.0466 19.4524 10.3311 19.0495 10.5306 18.5988C10.7301 18.1481 10.8404 17.6592 10.8547 17.1619C10.8691 16.6647 10.7872 16.1695 10.614 15.7068C10.4409 15.2442 10.1802 14.8237 9.84778 14.4711C9.51541 14.1186 9.1184 13.8414 8.68105 13.6565C8.24371 13.4717 7.77525 13.383 7.30434 13.396C6.83343 13.409 6.36999 13.5234 5.9424 13.7322C5.5148 13.9409 5.13205 14.2396 4.81757 14.61C1.86376 17.7112 0.197265 21.9245 0.184643 26.3232C0.17202 30.722 1.8143 34.9459 4.75027 38.0659C5.06371 38.4358 5.44521 38.7344 5.87149 38.9435C6.29778 39.1526 6.75992 39.2678 7.22974 39.2822C7.69957 39.2965 8.16724 39.2096 8.60424 39.0268C9.04124 38.8441 9.43841 38.5692 9.77155 38.219C10.1047 37.8689 10.3668 37.4507 10.5419 36.99C10.7171 36.5294 10.8015 36.0359 10.7902 35.5396C10.7788 35.0434 10.6719 34.5548 10.4759 34.1036C10.2799 33.6524 9.99901 33.2481 9.65025 32.9153V32.9153Z" fill="#FFDA00"/>
<path d="M9.69444 19.7827C11.3509 18.0508 13.59 17.0832 15.9209 17.092C18.2517 17.1007 20.4842 18.0851 22.129 19.8294C22.4413 20.2032 22.8228 20.5056 23.2499 20.7179C23.6769 20.9303 24.1406 21.0482 24.6124 21.0643C25.0842 21.0804 25.5542 20.9945 25.9934 20.8117C26.4326 20.6289 26.8317 20.3532 27.1663 20.0016C27.5009 19.6499 27.7638 19.2296 27.9389 18.7667C28.114 18.3037 28.1976 17.8078 28.1846 17.3095C28.1716 16.8111 28.0621 16.3208 27.8631 15.8688C27.664 15.4168 27.3795 15.0125 27.0271 14.6809C25.5787 13.1315 23.8547 11.8995 21.9542 11.0558C20.0538 10.2121 18.0142 9.77317 15.9526 9.7643C13.8911 9.75543 11.8482 10.1768 9.94122 11.0041C8.03429 11.8315 6.3009 13.0485 4.84061 14.5854C4.48725 14.9142 4.20114 15.3157 3.99979 15.7654C3.79844 16.215 3.68608 16.7033 3.6696 17.2004C3.65312 17.6975 3.73286 18.1929 3.90393 18.6563C4.07501 19.1197 4.33382 19.5414 4.66454 19.8955C4.99526 20.2496 5.39092 20.5287 5.82731 20.7158C6.2637 20.9028 6.73164 20.9938 7.2025 20.9833C7.67335 20.9727 8.13721 20.8608 8.56569 20.6544C8.99417 20.4479 9.37825 20.1513 9.69444 19.7827V19.7827Z" fill="#67B3FF"/>
<path d="M22.1078 32.9618C21.2881 33.8217 20.3158 34.5023 19.2466 34.9648C18.1775 35.4273 17.0324 35.6625 15.8771 35.6569C14.722 35.6587 13.5782 35.4171 12.5126 34.9463C11.447 34.4755 10.4811 33.785 9.67131 32.9151C9.35836 32.5432 8.97683 32.2427 8.5501 32.032C8.12336 31.8213 7.66039 31.7048 7.18954 31.6897C6.71869 31.6745 6.24987 31.761 5.81177 31.9439C5.37368 32.1268 4.97553 32.4021 4.64172 32.7532C4.3079 33.1042 4.04544 33.5235 3.8704 33.9854C3.69536 34.4472 3.61143 34.942 3.62374 35.4393C3.63606 35.9367 3.74436 36.4261 3.94201 36.8777C4.13967 37.3293 4.42252 37.7335 4.77325 38.0656C6.22413 39.6149 7.95025 40.8466 9.85267 41.69C11.7551 42.5334 13.7964 42.972 15.8597 42.9807C17.9229 42.9894 19.9675 42.5679 21.8762 41.7406C23.7849 40.9132 25.5203 39.6961 26.9828 38.1591C27.3059 37.821 27.5628 37.419 27.7389 36.9761C27.9149 36.5332 28.0066 36.058 28.0087 35.5776C28.0109 35.0973 27.9234 34.6212 27.7513 34.1766C27.5793 33.7319 27.326 33.3274 27.0059 32.9861C26.6858 32.6449 26.3052 32.3736 25.8858 32.1876C25.4664 32.0017 25.0164 31.9049 24.5616 31.9026C24.1068 31.9003 23.656 31.9927 23.235 32.1745C22.8139 32.3562 22.4309 32.6237 22.1078 32.9618V32.9618Z" fill="#EB5A68"/>
<path d="M9.69437 19.7826C9.2092 20.2944 8.59103 20.6425 7.91827 20.7827C7.24552 20.9229 6.54849 20.8489 5.9156 20.5701C5.28272 20.2913 4.7425 19.8203 4.36347 19.2167C3.98444 18.6132 3.78368 17.9044 3.78665 17.1802C3.78963 16.456 3.9962 15.749 4.38018 15.149C4.76415 14.549 5.30822 14.0829 5.94337 13.8099C6.57852 13.537 7.27613 13.4694 7.94771 13.6157C8.61929 13.7621 9.23458 14.1158 9.71553 14.632C10.3563 15.3197 10.7136 16.2471 10.7096 17.2119C10.7057 18.1767 10.3407 19.1008 9.69437 19.7826Z" fill="#47A1FF"/>
<path d="M9.62748 38.0656C9.14212 38.5772 8.52382 38.925 7.85101 39.0649C7.1782 39.2048 6.4812 39.1306 5.84842 38.8515C5.21564 38.5725 4.6756 38.1012 4.2968 37.4975C3.91799 36.8938 3.7175 36.1849 3.72074 35.4607C3.72399 34.7365 3.93083 34.0297 4.31502 33.4298C4.69922 32.8299 5.24346 32.3641 5.87871 32.0914C6.51396 31.8187 7.2116 31.7514 7.88312 31.898C8.55465 32.0446 9.1698 32.3986 9.65056 32.915C10.291 33.603 10.648 34.5305 10.6437 35.4953C10.6394 36.4601 10.2741 37.384 9.62748 38.0656V38.0656Z" fill="#D5465F"/>
<path d="M42.4301 29.9196C43.4282 29.1234 43.5609 29.5682 44.4032 30.4578C44.8243 30.9026 45.9763 31.6764 45.2224 32.3304C43.6493 33.6871 42.2301 34.2963 40.2224 34.2963C35.6782 34.274 32.4648 30.6914 32.7225 25.9388C32.8321 23.8104 33.6302 21.7956 35.2051 20.4146C36.6455 19.1269 38.4398 18.5664 40.3244 18.6131C41.248 18.6102 42.1631 18.8007 43.0167 19.1736C43.5948 19.3941 44.1395 19.7019 44.634 20.0876C45.632 20.9 45.1666 21.3752 44.3897 22.1937C44.2128 22.3806 44.0359 22.5694 43.8801 22.7563C43.482 23.1767 43.2147 23.4814 42.684 23.0833C41.6647 22.3338 40.3763 21.9358 39.159 22.2709C35.2359 23.3229 35.4128 30.6974 40.2244 30.7218C41.022 30.7107 41.7952 30.4295 42.4301 29.9196V29.9196ZM151.482 34.3877C151.324 34.3885 151.168 34.3564 151.023 34.2933C150.877 34.2301 150.745 34.1371 150.633 34.0197C150.522 33.9022 150.434 33.7627 150.374 33.609C150.314 33.4554 150.283 33.2907 150.284 33.1245L150.351 16.7852C150.35 16.619 150.38 16.4543 150.44 16.3005C150.5 16.1468 150.588 16.007 150.699 15.8894C150.811 15.7718 150.943 15.6786 151.088 15.6152C151.234 15.5517 151.39 15.5194 151.547 15.5199H152.834C152.991 15.5194 153.147 15.5518 153.293 15.6153C153.438 15.6789 153.571 15.7723 153.682 15.8901C153.793 16.008 153.881 16.1479 153.941 16.3019C154 16.4559 154.031 16.6208 154.03 16.7872L153.962 33.1265C153.963 33.2926 153.933 33.4573 153.873 33.6109C153.813 33.7645 153.725 33.9041 153.614 34.0216C153.502 34.139 153.37 34.2321 153.225 34.2953C153.079 34.3585 152.923 34.3906 152.766 34.3898L151.482 34.3877ZM144.751 32.4928C143.355 33.8739 142.024 34.599 140.051 34.599C136.062 34.5746 134.155 31.0874 134.155 27.1777L134.178 20.5303C134.177 20.3642 134.208 20.1996 134.268 20.0461C134.328 19.8926 134.416 19.7531 134.528 19.6359C134.639 19.5186 134.772 19.4258 134.917 19.3628C135.063 19.2999 135.219 19.268 135.376 19.2691H136.662C136.82 19.2683 136.976 19.3004 137.121 19.3636C137.267 19.4268 137.399 19.5198 137.51 19.6373C137.621 19.7548 137.709 19.8943 137.769 20.048C137.829 20.2016 137.859 20.3662 137.859 20.5324L137.837 27.1798C137.837 29.357 138.945 31.0651 141.118 31.0651C143.291 31.0651 144.62 29.1458 144.641 27.0031V24.6289C144.624 24.5367 144.617 24.4426 144.62 24.3486L144.641 20.5791C144.64 20.413 144.671 20.2483 144.731 20.0947C144.791 19.9411 144.879 19.8015 144.99 19.684C145.101 19.5665 145.233 19.4735 145.379 19.4103C145.524 19.3471 145.68 19.315 145.837 19.3158H147.107C147.264 19.315 147.42 19.3471 147.565 19.4103C147.711 19.4735 147.843 19.5665 147.954 19.684C148.065 19.8015 148.153 19.9411 148.213 20.0947C148.273 20.2483 148.304 20.413 148.303 20.5791L148.26 33.1265C148.257 33.4585 148.13 33.7756 147.905 34.0083C147.681 34.241 147.379 34.3701 147.064 34.3674H145.978C145.669 34.3573 145.376 34.2232 145.158 33.9927C144.939 33.7621 144.812 33.4524 144.803 33.1265L144.751 32.4928ZM129.449 19.3158H131.932C132.089 19.3182 132.244 19.3534 132.389 19.4196C132.533 19.4857 132.664 19.5814 132.773 19.7011C132.882 19.8208 132.968 19.9622 133.025 20.1171C133.083 20.2719 133.11 20.4372 133.107 20.6035V21.4687C133.104 21.8022 132.978 22.1213 132.755 22.3576C132.532 22.5938 132.23 22.7282 131.914 22.7319H129.426L129.382 33.0554C129.382 33.2216 129.352 33.3864 129.292 33.5401C129.232 33.6939 129.144 33.8336 129.033 33.9512C128.922 34.0688 128.79 34.162 128.644 34.2255C128.499 34.2889 128.343 34.3213 128.186 34.3207H126.901C126.743 34.3213 126.587 34.2889 126.442 34.2255C126.296 34.1621 126.164 34.0689 126.053 33.9513C125.941 33.8337 125.853 33.694 125.793 33.5403C125.733 33.3865 125.702 33.2217 125.703 33.0554L125.747 18.7776C125.747 15.6641 127.432 13.2046 130.447 12.9243C130.536 12.9243 130.601 12.902 130.689 12.902C130.867 12.8898 131.045 12.8898 131.222 12.902H132.376C132.533 12.9043 132.688 12.9395 132.833 13.0055C132.977 13.0715 133.108 13.167 133.217 13.2865C133.326 13.406 133.412 13.5472 133.469 13.7018C133.526 13.8564 133.554 14.0215 133.551 14.1876V14.9837C133.549 15.3183 133.422 15.6386 133.198 15.8754C132.975 16.1121 132.672 16.2464 132.355 16.249H131.424C130.005 16.249 129.407 17.3945 129.384 18.7999L129.449 19.3158ZM120.539 19.2691H123.261C123.575 19.2723 123.875 19.4072 124.096 19.644C124.316 19.8809 124.438 20.2004 124.436 20.5324V21.3976C124.432 21.7296 124.305 22.0467 124.081 22.2794C123.856 22.512 123.554 22.6412 123.239 22.6385H120.516L120.495 28.9549C120.495 30.1734 121.049 30.8741 122.201 30.8741H122.755C123.069 30.8779 123.37 31.0132 123.59 31.2504C123.81 31.4875 123.932 31.8072 123.93 32.1394V33.0168C123.926 33.3487 123.798 33.6655 123.574 33.898C123.35 34.1306 123.048 34.2599 122.734 34.2578H121.691C121.499 34.2618 121.306 34.2537 121.114 34.2334C118.166 34.0303 116.859 32.0115 116.859 28.967C116.882 24.8705 116.882 20.7984 116.903 16.7019C116.904 16.5374 116.937 16.3747 116.998 16.2233C117.059 16.0719 117.147 15.9346 117.259 15.8194C117.37 15.7042 117.501 15.6132 117.646 15.5517C117.791 15.4902 117.945 15.4594 118.101 15.461H119.364C119.679 15.4642 119.979 15.5991 120.199 15.8359C120.42 16.0728 120.542 16.3923 120.539 16.7243V19.2691ZM81.1165 19.1046H83.8376C84.152 19.1078 84.4523 19.2426 84.6726 19.4795C84.8929 19.7163 85.0152 20.0359 85.0126 20.3679V21.2371C85.0091 21.5689 84.8812 21.8858 84.6571 22.1183C84.4329 22.3509 84.1307 22.4802 83.8165 22.4781H81.0857V28.7964C81.0857 30.015 81.6396 30.7157 82.7915 30.7157H83.3473C83.5028 30.7173 83.6566 30.7513 83.7997 30.8156C83.9429 30.88 84.0726 30.9734 84.1815 31.0908C84.2905 31.2081 84.3765 31.3469 84.4346 31.4993C84.4927 31.6517 84.5218 31.8147 84.5203 31.979V32.8442C84.5173 33.1762 84.3896 33.4933 84.1653 33.726C83.9411 33.9587 83.6385 34.0878 83.3242 34.0851H82.505C79.2896 34.0628 77.4281 32.6106 77.4281 28.8046C77.4511 24.7081 77.4511 20.6339 77.4723 16.5374C77.4758 16.2052 77.6039 15.8881 77.8285 15.6555C78.0531 15.4229 78.3558 15.2938 78.6704 15.2965H79.9338C80.2482 15.3002 80.5483 15.4356 80.7682 15.6728C80.9882 15.9101 81.11 16.2298 81.1069 16.5618L81.1165 19.1046ZM65.1146 20.8837C66.4223 19.5961 67.8416 18.7776 69.68 18.7776C73.6704 18.7999 75.7319 22.2303 75.7088 26.1968L75.6877 32.8442C75.6882 33.0105 75.6575 33.1753 75.5975 33.329C75.5375 33.4828 75.4493 33.6225 75.3379 33.7401C75.2266 33.8577 75.0943 33.9509 74.9487 34.0143C74.8031 34.0777 74.6471 34.11 74.4896 34.1095H73.205C73.0475 34.11 72.8915 34.0777 72.7459 34.0143C72.6003 33.9509 72.468 33.8577 72.3567 33.7401C72.2453 33.6225 72.1571 33.4828 72.0971 33.329C72.0371 33.1753 72.0064 33.0105 72.0069 32.8442L72.03 26.2435C72.03 24.0663 70.9223 22.3582 68.7492 22.3582C66.5762 22.3582 65.2473 24.2552 65.2262 26.408L65.2031 32.8442C65.2001 33.1762 65.0724 33.4933 64.8481 33.726C64.6238 33.9587 64.3213 34.0878 64.007 34.0851H62.7435C62.4291 34.0819 62.1288 33.9471 61.9085 33.7102C61.6882 33.4734 61.5659 33.1539 61.5685 32.8219C61.5897 28.8188 61.5897 24.7934 61.6127 20.7903V20.2521C61.6137 19.9204 61.7392 19.6028 61.9616 19.3686C62.184 19.1345 62.4852 19.003 62.7993 19.003H63.8858C64.1945 19.0127 64.4881 19.1466 64.7065 19.3772C64.9249 19.6079 65.0516 19.9179 65.0608 20.244L65.1146 20.8837ZM104.613 21.0462C105.92 19.7606 107.338 18.9401 109.178 18.9401C113.168 18.9644 115.228 22.4049 115.207 26.3613L115.184 33.0168C115.184 33.183 115.154 33.3478 115.094 33.5015C115.034 33.6553 114.946 33.795 114.835 33.9126C114.724 34.0302 114.592 34.1234 114.446 34.1869C114.301 34.2503 114.145 34.2827 113.988 34.2821H112.703C112.545 34.2827 112.389 34.2503 112.244 34.1869C112.098 34.1235 111.966 34.0303 111.855 33.9127C111.743 33.7951 111.655 33.6554 111.595 33.5017C111.535 33.3479 111.504 33.1831 111.505 33.0168L111.528 26.4161C111.528 24.2389 110.418 22.5309 108.247 22.5309C106.076 22.5309 104.745 24.4258 104.722 26.5806L104.691 33.0168C104.688 33.349 104.56 33.6662 104.335 33.8988C104.111 34.1314 103.808 34.2605 103.493 34.2578H102.23C101.916 34.254 101.616 34.1189 101.396 33.8821C101.176 33.6453 101.054 33.3261 101.057 32.9945L101.101 20.4227C101.102 20.2574 101.133 20.0939 101.194 19.9416C101.254 19.7892 101.343 19.651 101.454 19.5349C101.565 19.4188 101.697 19.3271 101.842 19.2651C101.987 19.2031 102.143 19.172 102.299 19.1736H103.386C103.695 19.1844 103.99 19.3201 104.208 19.5527C104.426 19.7854 104.552 20.0974 104.559 20.4247L104.613 21.0462ZM53.0474 18.6598C48.7243 18.6354 45.6666 21.9358 45.6436 26.4771C45.6224 31.0651 48.6359 34.3207 53.0032 34.3431C57.3704 34.3654 60.4281 31.1361 60.4493 26.5177C60.4724 22.0069 57.3474 18.6821 53.0474 18.6598ZM88.9318 28.047C89.2415 30.1531 91.1491 31.0183 93.0107 31.0427C93.9439 31.0341 94.865 30.8189 95.7145 30.4111C95.8511 30.3523 95.9841 30.2845 96.1126 30.208C96.5568 29.95 96.9549 29.7876 97.3549 30.208C97.576 30.4415 97.776 30.6771 97.9972 30.8863C98.2061 31.0968 98.399 31.3243 98.5741 31.5667C99.1722 32.3608 98.751 32.5497 98.0645 33.0412C96.601 34.0709 94.6953 34.5847 92.9434 34.5847C88.2453 34.5624 85.1415 31.5383 85.1415 26.5339C85.1646 21.8038 88.2665 18.6679 92.7434 18.6903C97.3107 18.7146 99.903 21.5479 99.9703 26.3694C99.9914 27.6794 100.036 28.1018 98.751 28.1018L88.9318 28.047ZM53.0474 22.1937C55.2858 22.1937 56.7704 24.2552 56.7704 26.5258C56.7704 28.8899 55.3743 30.7909 53.0243 30.7909C50.6743 30.7909 49.3012 28.8716 49.3012 26.5075C49.3012 24.1435 50.7205 22.1937 53.0474 22.1937V22.1937ZM89.0299 24.7934L96.3895 24.8157C96.1222 22.8721 94.5934 22.1003 92.8434 22.1003C91.0934 22.1003 89.5742 22.9675 89.0299 24.7934Z" fill="#29303A"/>
</g>
<defs>
<clipPath id="clip0_8_384">
<rect width="154.624" height="48.3151" fill="white" transform="translate(0.18457 0.705078)"/>
</clipPath>
</defs>
</svg>
