<svg width="109" height="50" viewBox="0 0 109 50" fill="none" xmlns="http://www.w3.org/2000/svg">
<g clip-path="url(#clip0_8_386)">
<path d="M11.9148 13.8972V23.0446H3.99756V13.8972H0.23877V35.7329H3.99756V26.8826H11.9148V35.7329H15.6736V13.8972H11.9148Z" fill="#33475B"/>
<path d="M27.7032 28.6741C27.7032 29.5492 27.3755 30.3884 26.7924 31.0072C26.2092 31.626 25.4183 31.9736 24.5935 31.9736C23.7688 31.9736 22.9779 31.626 22.3947 31.0072C21.8116 30.3884 21.4839 29.5492 21.4839 28.6741V19.3215H17.9185V28.6741C17.9185 30.5507 18.6211 32.3505 19.8717 33.6775C21.1223 35.0045 22.8185 35.7501 24.5871 35.7501C26.3557 35.7501 28.0519 35.0045 29.3025 33.6775C30.5531 32.3505 31.2557 30.5507 31.2557 28.6741V19.3215H27.7032V28.6741Z" fill="#33475B"/>
<path d="M54.1205 20.2854C54.1205 18.3683 55.3157 17.7606 56.6252 17.7606C57.6804 17.7606 59.0745 18.6126 59.9861 19.6464L62.3213 16.7269C61.1556 15.0541 58.7909 13.8972 56.8554 13.8972C52.9879 13.8972 50.1905 16.3008 50.1905 20.2854C50.1905 27.6779 58.7062 25.3329 58.7062 29.4699C58.7062 30.746 57.5386 31.8735 56.2016 31.8735C54.0929 31.8735 53.4096 30.7792 52.4409 29.6223L49.8497 32.4812C51.5072 34.6406 53.5515 35.7369 56.0008 35.7369C59.6749 35.7369 62.6307 33.3039 62.6307 29.5012C62.6307 21.2937 54.115 23.8439 54.115 20.2854" fill="#33475B"/>
<path d="M106.803 32.2445C104.696 32.2445 104.097 31.2772 104.097 29.796V23.2398H107.372V19.9177H104.097V15.5346L100.482 17.2562V30.6109C100.482 34.0267 102.703 35.7483 105.749 35.7483C106.227 35.7576 106.704 35.717 107.175 35.6272L108.057 32.182C107.659 32.2113 107.202 32.2406 106.803 32.2406" fill="#33475B"/>
<path d="M41.2751 19.4317C39.509 19.4317 38.2769 19.975 37.0854 21.2159V14.0285H33.5144V27.35C33.5144 32.337 36.9122 35.7528 40.73 35.7528C44.9657 35.7528 48.6914 32.2764 48.6914 27.5943C48.6914 22.9707 45.2623 19.4337 41.2751 19.4337V19.4317ZM41.253 31.9403C40.4517 31.9403 39.6683 31.6882 39.002 31.2158C38.3358 30.7434 37.8165 30.0719 37.5098 29.2864C37.2031 28.5008 37.1229 27.6364 37.2792 26.8024C37.4356 25.9685 37.8214 25.2024 38.3881 24.6012C38.9547 24 39.6766 23.5905 40.4626 23.4246C41.2485 23.2587 42.0631 23.3439 42.8035 23.6693C43.5438 23.9947 44.1766 24.5457 44.6218 25.2527C45.067 25.9597 45.3046 26.7909 45.3046 27.6412C45.3046 28.7814 44.8777 29.8749 44.1179 30.6811C43.3581 31.4873 42.3276 31.9403 41.253 31.9403Z" fill="#33475B"/>
<path d="M80.0488 27.3941C80.0488 22.7041 76.3306 19.2355 72.0874 19.2355C68.2697 19.2355 64.8719 22.6513 64.8719 27.6383V40.9676H68.4428V33.7705C69.6325 35.0094 70.8664 35.5546 72.6307 35.5546C76.6179 35.5546 80.047 32.0196 80.047 27.3941H80.0488ZM76.6676 27.3472C76.6676 28.1975 76.43 29.0287 75.9848 29.7357C75.5396 30.4426 74.9068 30.9937 74.1665 31.3191C73.4261 31.6445 72.6115 31.7296 71.8256 31.5637C71.0396 31.3978 70.3177 30.9884 69.7511 30.3871C69.1844 29.7859 68.7986 29.0199 68.6422 28.1859C68.4859 27.3519 68.5661 26.4875 68.8728 25.702C69.1794 24.9164 69.6988 24.245 70.365 23.7726C71.0313 23.3002 71.8147 23.048 72.616 23.048C73.6905 23.048 74.7211 23.501 75.4809 24.3072C76.2407 25.1135 76.6676 26.207 76.6676 27.3472Z" fill="#33475B"/>
<path d="M91.5492 19.1752V15.4076C92.0185 15.175 92.4158 14.8058 92.6949 14.3429C92.974 13.88 93.1234 13.3424 93.1257 12.7929V12.705C93.1237 11.937 92.8353 11.2011 92.3236 10.658C91.8118 10.115 91.1183 9.80901 90.3945 9.80695H90.3116C89.5879 9.80901 88.8943 10.115 88.3826 10.658C87.8708 11.2011 87.5824 11.937 87.5805 12.705V12.7929C87.5828 13.3424 87.7322 13.88 88.0113 14.3429C88.2904 14.8058 88.6877 15.175 89.1569 15.4076V19.1752C87.8078 19.3941 86.5372 19.9873 85.4736 20.8948L75.724 12.8457C75.7934 12.5801 75.8305 12.3063 75.8345 12.0308C75.8352 11.3842 75.6552 10.7519 75.3173 10.2138C74.9793 9.67573 74.4986 9.25609 73.9359 9.00793C73.3732 8.75977 72.7538 8.69424 72.156 8.81963C71.5581 8.94502 71.0088 9.25569 70.5774 9.71236C70.146 10.169 69.8519 10.7512 69.7323 11.3852C69.6127 12.0193 69.673 12.6767 69.9055 13.2744C70.138 13.872 70.5323 14.3831 71.0386 14.743C71.5449 15.1029 72.1404 15.2954 72.7497 15.2962C73.285 15.2941 73.8103 15.1424 74.2728 14.8565L83.8585 22.7747C82.9951 24.1569 82.5447 25.7832 82.566 27.4413C82.5874 29.0994 83.0796 30.7121 83.9782 32.0687L81.0611 35.1641C80.8269 35.0849 80.583 35.0428 80.3373 35.039C79.8365 35.039 79.3469 35.1966 78.9305 35.4918C78.514 35.7871 78.1895 36.2067 77.9978 36.6977C77.8061 37.1887 77.756 37.7289 77.8537 38.2502C77.9514 38.7714 78.1926 39.2501 78.5467 39.6259C78.9009 40.0017 79.3521 40.2576 79.8433 40.3613C80.3345 40.465 80.8436 40.4117 81.3064 40.2084C81.7691 40.005 82.1645 39.6606 82.4428 39.2187C82.721 38.7769 82.8696 38.2574 82.8696 37.7259C82.8662 37.4652 82.8265 37.2064 82.7517 36.958L85.6375 33.8958C86.5796 34.6593 87.6736 35.1843 88.836 35.4308C89.9984 35.6773 91.1985 35.6387 92.3447 35.3179C93.4909 34.9972 94.5529 34.4028 95.4497 33.5802C96.3464 32.7575 97.0541 31.7283 97.5188 30.5712C97.9835 29.414 98.1929 28.1595 98.131 26.9034C98.0691 25.6473 97.7375 24.4228 97.1616 23.3234C96.5857 22.224 95.7807 21.2788 94.808 20.5598C93.8353 19.8409 92.7207 19.3673 91.5492 19.1752V19.1752ZM90.354 31.5684C89.5643 31.5684 88.7924 31.3199 88.1358 30.8544C87.4792 30.3889 86.9674 29.7272 86.6652 28.9531C86.363 28.1789 86.284 27.3271 86.438 26.5053C86.5921 25.6835 86.9724 24.9286 87.5307 24.3361C88.0891 23.7436 88.8006 23.3401 89.5751 23.1766C90.3496 23.0131 91.1524 23.097 91.8819 23.4177C92.6115 23.7383 93.2351 24.2814 93.6738 24.9781C94.1125 25.6748 94.3467 26.4939 94.3467 27.3318C94.3467 28.4554 93.926 29.533 93.1772 30.3275C92.4285 31.1221 91.4129 31.5684 90.354 31.5684" fill="#FF7A59"/>
</g>
<defs>
<clipPath id="clip0_8_386">
<rect width="108.142" height="48.3151" fill="white" transform="translate(0.23877 0.705078)"/>
</clipPath>
</defs>
</svg>
