<svg width="172" height="50" viewBox="0 0 172 50" fill="none" xmlns="http://www.w3.org/2000/svg">
<g clip-path="url(#clip0_8_385)">
<path fill-rule="evenodd" clip-rule="evenodd" d="M52.55 35.3101C51.925 35.0573 51.5157 34.5219 51.5157 33.8081C51.5157 32.9441 52.1884 32.2318 53.0069 32.2318C53.248 32.2318 53.4414 32.2823 53.6096 32.3582C54.7257 32.9043 55.9417 33.1825 57.1708 33.1731C59.6752 33.1731 60.8539 31.9016 60.8539 29.4568V28.795C59.7705 30.1706 58.5919 31.0108 56.6424 31.0108C53.6334 31.0108 50.9131 28.6939 50.9131 24.646V24.5969C50.9131 20.5237 53.681 18.2335 56.6424 18.2335C58.6395 18.2335 59.8182 19.1258 60.8048 20.2709V20.2441C60.8048 19.2002 61.6233 18.3362 62.6352 18.3362C63.6443 18.3362 64.4627 19.2002 64.4627 20.2694V29.0508C64.4627 31.4941 63.9105 33.2742 62.8272 34.4193C61.6233 35.6938 59.7705 36.2529 57.2675 36.2529C55.6521 36.268 54.0495 35.9477 52.55 35.3101V35.3101ZM60.8539 24.6475V24.5969C60.8539 22.738 59.4804 21.4398 57.7005 21.4398C55.9206 21.4398 54.5724 22.738 54.5724 24.5969V24.6475C54.5724 26.5302 55.9206 27.8031 57.7005 27.8031C59.4804 27.8031 60.8539 26.5049 60.8539 24.6475V24.6475ZM66.5341 20.2694C66.5341 19.2002 67.3526 18.3362 68.3631 18.3362C69.375 18.3362 70.192 19.2002 70.192 20.2694V20.8791C70.7218 19.5571 71.5879 18.3362 72.6727 18.3362C73.8037 18.3362 74.4526 19.1243 74.4526 20.2188C74.4526 21.236 73.8275 21.8472 73.0805 22.0257C71.2277 22.4852 70.1934 23.9857 70.1934 26.7339V30.3476C70.1934 31.4168 69.375 32.2823 68.3631 32.2823C68.1233 32.2829 67.8858 32.2334 67.6641 32.1365C67.4425 32.0396 67.2409 31.8974 67.0711 31.7178C66.9012 31.5383 66.7664 31.325 66.6742 31.0902C66.5821 30.8553 66.5345 30.6035 66.5341 30.3491V20.2694V20.2694ZM74.0195 28.2106V28.16C74.0195 25.1813 76.161 23.8072 79.2191 23.8072C80.5182 23.8072 81.4572 24.0363 82.3724 24.3664V24.1374C82.3724 22.5358 81.4334 21.6435 79.6045 21.6435C78.7483 21.6338 77.8957 21.7627 77.0762 22.0257C76.907 22.0922 76.7282 22.1269 76.5478 22.1283C76.35 22.1322 76.1534 22.0943 75.9696 22.0167C75.7858 21.9391 75.6184 21.8234 75.4772 21.6764C75.336 21.5293 75.2239 21.3539 75.1473 21.1603C75.0708 20.9667 75.0314 20.7589 75.0314 20.549C75.0314 19.8619 75.4378 19.2775 76.018 19.047C77.1729 18.589 78.4244 18.3362 80.1328 18.3362C82.13 18.3362 83.5749 18.8953 84.4887 19.8619C85.4515 20.8791 85.886 22.3826 85.886 24.2147V30.4234C85.886 31.4674 85.0913 32.2823 84.1047 32.2823C83.0451 32.2823 82.3472 31.4942 82.3472 30.6792V30.6524C81.4573 31.6964 80.2309 32.3834 78.4482 32.3834C76.018 32.3834 74.0195 30.9082 74.0195 28.2106V28.2106ZM82.4201 27.3183V26.6328C81.6844 26.2898 80.8887 26.1159 80.0852 26.1227C78.5197 26.1227 77.5583 26.7845 77.5583 28.0069V28.0574C77.5583 29.1014 78.3768 29.7126 79.5554 29.7126C81.2652 29.7126 82.4201 28.7192 82.4201 27.3183ZM87.8355 20.2694C87.8355 19.2002 88.6539 18.3362 89.6658 18.3362C90.6763 18.3362 91.4948 19.2002 91.4948 20.2694V20.4226C92.3356 19.2775 93.4442 18.2335 95.297 18.2335C96.9816 18.2335 98.257 19.0217 98.9311 20.3973C100.062 18.9979 101.412 18.2335 103.166 18.2335C105.887 18.2335 107.525 19.9645 107.525 23.2481V30.3476C107.525 31.4168 106.705 32.2823 105.695 32.2823C105.455 32.2829 105.217 32.2334 104.996 32.1365C104.774 32.0397 104.572 31.8975 104.402 31.7179C104.232 31.5384 104.097 31.3251 104.005 31.0903C103.913 30.8554 103.865 30.6035 103.864 30.3491V24.5196C103.864 22.6875 103.094 21.7461 101.723 21.7461C100.351 21.7461 99.5085 22.6875 99.5085 24.5196V30.3491C99.5085 31.4168 98.6914 32.2823 97.6795 32.2823C97.1955 32.2831 96.7309 32.0799 96.3879 31.7174C96.045 31.3549 95.8517 30.8627 95.8506 30.3491V24.5196C95.8506 22.6875 95.0798 21.7461 93.7091 21.7461C92.3357 21.7461 91.4948 22.6875 91.4948 24.5196V30.3491C91.4948 31.4168 90.6763 32.2823 89.6658 32.2823C89.4259 32.2831 89.1883 32.2337 88.9664 32.1369C88.7446 32.0402 88.5429 31.8979 88.3729 31.7184C88.2029 31.5388 88.0679 31.3255 87.9757 31.0905C87.8835 30.8555 87.8358 30.6036 87.8355 30.3491V20.2694V20.2694ZM109.498 20.2694C109.498 19.2002 110.317 18.3362 111.327 18.3362C112.339 18.3362 113.158 19.2002 113.158 20.2694V20.4226C113.999 19.2775 115.106 18.2335 116.96 18.2335C118.644 18.2335 119.92 19.0217 120.594 20.3973C121.725 18.9979 123.073 18.2335 124.829 18.2335C127.55 18.2335 129.187 19.9645 129.187 23.2481V30.3476C129.187 31.4168 128.368 32.2823 127.356 32.2823C126.872 32.2831 126.408 32.0799 126.065 31.7174C125.722 31.3549 125.528 30.8627 125.527 30.3491V24.5196C125.527 22.6875 124.756 21.7461 123.386 21.7461C122.012 21.7461 121.171 22.6875 121.171 24.5196V30.3491C121.171 31.4168 120.353 32.2823 119.342 32.2823C119.103 32.2829 118.865 32.2334 118.643 32.1365C118.422 32.0396 118.22 31.8974 118.05 31.7178C117.881 31.5383 117.746 31.325 117.654 31.0902C117.561 30.8553 117.514 30.6035 117.513 30.3491V24.5196C117.513 22.6875 116.743 21.7461 115.371 21.7461C113.999 21.7461 113.156 22.6875 113.156 24.5196V30.3491C113.156 31.4168 112.339 32.2823 111.327 32.2823C111.088 32.2829 110.85 32.2334 110.628 32.1365C110.407 32.0396 110.205 31.8974 110.035 31.7178C109.865 31.5383 109.731 31.325 109.638 31.0902C109.546 30.8553 109.499 30.6035 109.498 30.3491V20.2694V20.2694ZM130.39 28.2106V28.16C130.39 25.1813 132.533 23.8072 135.59 23.8072C136.663 23.797 137.73 23.9862 138.742 24.3664V24.1374C138.742 22.5358 137.803 21.6435 135.974 21.6435C134.963 21.6435 134.145 21.7967 133.447 22.0257C133.278 22.0922 133.099 22.1269 132.919 22.1283C132.721 22.1327 132.524 22.095 132.34 22.0176C132.156 21.9401 131.988 21.8245 131.847 21.6774C131.705 21.5303 131.593 21.3547 131.517 21.1609C131.44 20.9671 131.401 20.7591 131.401 20.549C131.401 19.8619 131.812 19.2775 132.388 19.047C133.544 18.589 134.795 18.3362 136.504 18.3362C138.502 18.3362 139.946 18.8953 140.86 19.8619C141.822 20.8791 142.255 22.3826 142.255 24.2147V30.4234C142.256 30.6701 142.209 30.9142 142.119 31.1417C142.03 31.3692 141.898 31.5755 141.732 31.7485C141.567 31.9215 141.37 32.0578 141.155 32.1495C140.939 32.2411 140.708 32.2863 140.476 32.2823C139.416 32.2823 138.718 31.4942 138.718 30.6792V30.6524C137.828 31.6964 136.599 32.3834 134.819 32.3834C132.388 32.3834 130.39 30.9082 130.39 28.2106V28.2106ZM138.791 27.3183V26.6328C138.055 26.2898 137.26 26.116 136.456 26.1227C134.891 26.1227 133.929 26.7845 133.929 28.0069V28.0574C133.929 29.1014 134.746 29.7126 135.926 29.7126C137.635 29.7126 138.791 28.7192 138.791 27.3183ZM144.206 20.2694C144.206 19.2002 145.025 18.3362 146.035 18.3362C147.047 18.3362 147.864 19.2002 147.864 20.2694V20.8791C148.394 19.5571 149.26 18.3362 150.345 18.3362C151.474 18.3362 152.125 19.1243 152.125 20.2188C152.125 21.236 151.498 21.8472 150.753 22.0257C148.9 22.4852 147.864 23.9857 147.864 26.7339V30.3476C147.864 31.4168 147.047 32.2823 146.035 32.2823C145.551 32.2831 145.087 32.0799 144.744 31.7174C144.401 31.3549 144.207 30.8627 144.206 30.3491V20.2694V20.2694ZM153.232 15.3322C153.232 14.2615 154.05 13.3989 155.061 13.3989C156.073 13.3989 156.891 14.2615 156.891 15.3322V30.3476C156.891 31.4168 156.073 32.2823 155.061 32.2823C154.577 32.2831 154.112 32.0799 153.769 31.7174C153.426 31.3549 153.233 30.8627 153.232 30.3491V15.3307V15.3322ZM159.804 35.9213C159.274 35.719 158.647 35.2595 158.647 34.3197C158.643 34.115 158.678 33.9114 158.748 33.7209C158.819 33.5303 158.924 33.3565 159.059 33.2096C159.193 33.0627 159.354 32.9456 159.531 32.865C159.709 32.7844 159.899 32.7421 160.092 32.7404C160.381 32.7404 160.549 32.7909 160.694 32.843C161.006 32.9441 161.199 32.9961 161.464 32.9961C162.113 32.9961 162.427 32.8682 162.764 32.1812L162.884 31.8749L158.481 21.0843C158.37 20.8002 158.305 20.4987 158.287 20.1921C158.287 19.099 159.082 18.3362 160.092 18.3362C161.006 18.3362 161.536 18.87 161.848 19.7861L164.642 27.7273L167.337 19.8114C167.625 18.9979 168.154 18.3362 169.094 18.3362C170.032 18.3362 170.825 19.099 170.825 20.1177C170.825 20.4226 170.73 20.8553 170.658 21.0338L166.157 32.4608C165.073 35.2342 163.991 36.2782 161.801 36.2782C160.982 36.2782 160.405 36.1518 159.804 35.9213Z" fill="#4C4C4C"/>
<path fill-rule="evenodd" clip-rule="evenodd" d="M40.7901 25.2934C40.7901 36.9672 31.8401 46.4312 20.8005 46.4312C9.76098 46.4312 0.811035 36.9672 0.811035 25.2934C0.811035 13.6195 9.76098 4.15552 20.8005 4.15552C31.8401 4.15552 40.7901 13.6195 40.7901 25.2934Z" fill="#15C39A"/>
<path fill-rule="evenodd" clip-rule="evenodd" d="M23.4133 29.8582C23.531 30.5497 24.1463 31.0241 24.812 31.0241H26.9058L28.1195 30.8456C26.177 33.8585 22.8051 35.2445 19.1177 34.6333C16.1157 34.1351 13.537 31.9863 12.448 28.9868C9.97858 22.1772 14.6806 15.6771 20.8093 15.6771C24.0033 15.6771 26.8035 17.6534 28.4096 20.0403C28.8357 20.6901 29.6822 20.9281 30.2974 20.4775C30.5769 20.2766 30.7741 19.9706 30.849 19.6214C30.9239 19.2721 30.8711 18.9057 30.7011 18.5963C29.5627 16.7153 27.9684 15.1939 26.0852 14.1918C24.202 13.1896 22.0994 12.7437 19.9979 12.9006C14.1536 13.3155 9.42359 18.3732 9.08723 24.5566C8.69762 31.7543 14.0948 37.6284 20.8093 37.6284C22.4835 37.6357 24.1395 37.2597 25.6642 36.5259C27.189 35.7922 28.5466 34.718 29.6443 33.3767L29.3893 34.8847V36.2469C29.3893 36.9488 29.8377 37.6001 30.4922 37.725C30.6877 37.7641 30.8888 37.7571 31.0813 37.7044C31.2739 37.6518 31.4531 37.5548 31.6064 37.4204C31.7597 37.286 31.8832 37.1174 31.9682 36.9267C32.0533 36.736 32.0977 36.5277 32.0984 36.3167V28.1584H24.7447C24.5458 28.1581 24.3492 28.2043 24.1691 28.2938C23.9889 28.3833 23.8296 28.5139 23.7024 28.6762C23.5753 28.8385 23.4835 29.0286 23.4335 29.2329C23.3835 29.4373 23.3766 29.6507 23.4133 29.8582V29.8582Z" fill="white"/>
</g>
<defs>
<clipPath id="clip0_8_385">
<rect width="170.75" height="48.3151" fill="white" transform="translate(0.811035 0.705078)"/>
</clipPath>
</defs>
</svg>
