<svg width="143" height="50" viewBox="0 0 143 50" fill="none" xmlns="http://www.w3.org/2000/svg">
<path d="M14.8438 21.0938L13.1472 19.3972C12.5612 18.8111 12.2319 18.0163 12.2319 17.1875C12.2319 16.3587 12.5612 15.5639 13.1472 14.9778L21.2278 6.89718C21.8139 6.31116 22.6087 5.98193 23.4375 5.98193C24.2663 5.98193 25.0611 6.31116 25.6472 6.89718L27.3438 8.59377L14.8438 21.0938Z" fill="#F98500"/>
<path d="M32.0566 29.209L29.6875 37.5L25.7812 39.0625L28.125 29.6875L27.2246 29.4297L23.2568 28.2969L20.6055 27.5065L21.875 21.875L26.1719 23.7168L28.8799 24.877L30.2822 25.4785C30.9812 25.778 31.5471 26.322 31.8737 27.0087C32.2004 27.6955 32.2654 28.4777 32.0566 29.209Z" fill="#3B495E"/>
<path d="M28.8799 24.877L27.2246 29.4297L23.2568 28.2969L26.1719 23.7168L28.8799 24.877Z" fill="#313B4C"/>
<path d="M28.9063 13.2812L31.25 10.9374L33.5938 12.4999L36.1016 9.57414C36.6408 8.94539 36.9241 8.13698 36.8953 7.30917C36.8666 6.48136 36.5278 5.69457 35.9462 5.10476C35.3647 4.51495 34.5827 4.16518 33.7554 4.12478C32.9281 4.08438 32.1158 4.3563 31.4795 4.88664L25.1885 10.1288" fill="#FEC9A3"/>
<path d="M4.6875 1.5625H6.25V18.75H4.6875V1.5625Z" fill="#C7C7C5"/>
<path d="M28.7041 17.7472L21.875 23.4376L22.8242 24.2511L25.4414 26.4942L25.7285 26.7403C26.1931 27.1386 26.5145 27.678 26.6438 28.2761C26.773 28.8743 26.703 29.4983 26.4443 30.0528L21.8848 39.8224L17.8017 41.3321L21.875 30.4689L20.2305 29.8107L18.5625 29.1437C17.2064 28.6014 16.0487 27.6572 15.2448 26.4378C14.441 25.2185 14.0294 23.7824 14.0654 22.3224C14.0683 22.1876 14.0752 22.0528 14.0859 21.9181C14.2369 20.1947 14.996 18.5813 16.2275 17.3663L21.0937 12.5001L17.9687 10.1564L9.56151 13.2579L8.57518 13.6212C8.5039 14.2722 8.22993 14.8843 7.79196 15.3711C7.35399 15.8579 6.77416 16.1949 6.13434 16.3343C5.49452 16.4738 4.82706 16.4088 4.2262 16.1484C3.62535 15.888 3.12148 15.4455 2.78574 14.8832C2.45 14.321 2.29936 13.6675 2.35509 13.0151C2.41083 12.3626 2.67012 11.7441 3.09636 11.247C3.52259 10.7499 4.09423 10.3992 4.73054 10.2445C5.36685 10.0898 6.03568 10.1389 6.64257 10.3849L8.208 9.64855L16.9209 5.54894C17.4657 5.29221 18.0732 5.19848 18.6701 5.27905C19.267 5.35962 19.8279 5.61104 20.2851 6.00304L24.2187 9.37511L28.9062 13.2814C29.2036 13.5788 29.4358 13.9349 29.5879 14.327C29.74 14.7191 29.8088 15.1387 29.7898 15.5588C29.7707 15.979 29.6644 16.3906 29.4774 16.7674C29.2905 17.1442 29.0271 17.4778 28.7041 17.7472Z" fill="#FEC9A3"/>
<path d="M25.7287 26.7402L25.4416 26.4941L22.8244 24.251L21.8752 23.4375L14.0656 22.3223C14.03 23.7822 14.4417 25.2182 15.2455 26.4374C16.0493 27.6567 17.2068 28.601 18.5627 29.1436L20.2306 29.8105L21.8752 30.4688L17.8019 41.332L21.8849 39.8223L26.4445 30.0527C26.7032 29.4982 26.7732 28.8742 26.644 28.276C26.5147 27.6779 26.1933 27.1385 25.7287 26.7402Z" fill="#4D5E78"/>
<path d="M5.46875 7.03125C6.76317 7.03125 7.8125 6.3317 7.8125 5.46875C7.8125 4.60581 6.76317 3.90625 5.46875 3.90625C4.17433 3.90625 3.125 4.60581 3.125 5.46875C3.125 6.3317 4.17433 7.03125 5.46875 7.03125Z" fill="#D6D6D4"/>
<path d="M34.9343 7.33813L33.6854 6.39897L32.0501 8.57358L30.9658 4.2688L29.4507 4.65054L31.5251 12.9468L33.0402 12.5652L32.5406 10.521L34.9343 7.33813Z" fill="#4D5E78"/>
<path d="M28.7041 17.7472L25.3906 20.5079L23.4687 22.1095L21.875 23.4376L19.9648 23.1651L18.1689 22.9083L14.0654 22.3224C14.0684 22.1876 14.0752 22.0528 14.0859 21.9181C14.1686 20.9172 14.4629 19.9452 14.9492 19.0665C15.2926 18.4421 15.723 17.8696 16.2275 17.3663L17.1875 16.4064L21.0937 12.5001L17.9687 10.1564L9.56152 13.2579L8.20801 9.64855L16.9209 5.54894C17.4657 5.29221 18.0732 5.19848 18.6701 5.27905C19.267 5.35962 19.8279 5.61104 20.2852 6.00304L24.2187 9.37511L27.084 11.7628L27.0918 11.7696L28.2842 12.7628L28.2852 12.7638L28.9062 13.2814C29.2036 13.5788 29.4358 13.9349 29.5879 14.327C29.74 14.7191 29.8088 15.1387 29.7898 15.5588C29.7707 15.979 29.6644 16.3906 29.4775 16.7674C29.2905 17.1442 29.0272 17.4778 28.7041 17.7472Z" fill="#F35244"/>
<path d="M28.2842 12.7627L19.9648 23.165L18.1689 22.9082L27.084 11.7627L27.0918 11.7695L28.2842 12.7627Z" fill="#DE4132"/>
<path d="M17.9688 35.9375H23.4375L21.0938 41.4062L14.8438 43.75L17.9688 35.9375Z" fill="#3B495E"/>
<path d="M31.25 32.8125L25.7812 33.5938L24.2188 39.8438L30.4688 37.5L31.25 32.8125Z" fill="#313B4C"/>
<path d="M25.3906 20.5078L23.4688 22.1094L20.7539 21.1396L14.9492 19.0664C15.2926 18.442 15.723 17.8695 16.2275 17.3662L17.1875 16.4062L22.1152 18.8701L25.3906 20.5078Z" fill="#4D5E78"/>
<path d="M22.1152 18.8701L20.7539 21.1396L14.9492 19.0664C15.2926 18.442 15.723 17.8695 16.2275 17.3662L17.1875 16.4062L22.1152 18.8701Z" fill="#556A8A"/>
<path d="M24.2188 9.375L26.5625 7.03125L30.4688 11.7188L28.9062 13.2812L24.2188 9.375Z" fill="#DE4132"/>
<path d="M13.147 14.9778L17.1873 14.8438L16.4061 11.7188L13.147 14.9778Z" fill="#FFB531"/>
<path d="M25.4414 26.4941L20.2305 29.8105L18.5625 29.1436C17.8258 28.8489 17.1433 28.4338 16.543 27.915L22.8242 24.251L25.4414 26.4941Z" fill="#3B495E"/>
<path d="M39.9084 30.4814C39.6211 30.4444 39.3292 30.4873 39.0647 30.6054C38.8002 30.7235 38.5733 30.9122 38.4091 31.1508L37.6139 32.3156C37.0321 33.1649 36.1916 33.8036 35.2175 34.1365L8.10194 43.446C7.90535 43.5117 7.72377 43.6158 7.56775 43.7523C7.41174 43.8888 7.28439 44.0549 7.19311 44.241C7.10183 44.4271 7.04843 44.6295 7.03601 44.8364C7.0236 45.0434 7.05241 45.2507 7.12079 45.4464C7.2645 45.8421 7.55828 46.1654 7.93855 46.3461C8.31881 46.5269 8.75497 46.5507 9.15262 46.4123L36.8394 36.9065C37.9335 36.5325 38.8842 35.8277 39.56 34.8896L40.9881 32.9013C41.1433 32.6833 41.2389 32.4286 41.2655 32.1622C41.2921 31.8959 41.2487 31.6273 41.1397 31.3829C41.0306 31.1385 40.8597 30.9267 40.6437 30.7686C40.4278 30.6105 40.1743 30.5115 39.9084 30.4814Z" fill="#C7C7C5"/>
<path d="M46.3918 31.7844C46.0643 31.7053 45.7204 31.7273 45.4055 31.8476C45.0907 31.9679 44.8198 32.1808 44.6285 32.4583L43.9367 33.4717C43.355 34.3211 42.5145 34.96 41.5403 35.293L14.4247 44.602C14.2281 44.6677 14.0465 44.7718 13.8905 44.9083C13.7345 45.0448 13.6071 45.2109 13.5158 45.397C13.4246 45.5831 13.3712 45.7855 13.3588 45.9925C13.3464 46.1994 13.3752 46.4067 13.4436 46.6024C13.5873 46.9982 13.8811 47.3214 14.2613 47.5022C14.6416 47.6829 15.0777 47.7067 15.4753 47.5683L43.2903 38.0186C44.3052 37.6715 45.1985 37.0392 45.8634 36.1975L47.3078 34.3646C47.4764 34.1497 47.5879 33.8956 47.632 33.6259C47.6761 33.3563 47.6513 33.0799 47.5599 32.8225C47.4685 32.565 47.3135 32.3348 47.1093 32.1533C46.905 31.9719 46.6583 31.845 46.3918 31.7844Z" fill="#D6D6D4"/>
<path d="M19.0114 15.8856C18.3101 15.8882 17.6122 15.7868 16.9406 15.5849C16.7458 15.5181 16.5853 15.3772 16.4939 15.1927C16.4024 15.0083 16.3875 14.7952 16.4524 14.5997C16.5172 14.4043 16.6566 14.2424 16.8401 14.1492C17.0237 14.056 17.2366 14.039 17.4327 14.102C17.4736 14.115 19.7442 14.8277 21.423 13.6092C22.7598 12.6389 23.4377 10.6886 23.4377 7.8125C23.4377 7.6053 23.52 7.40659 23.6665 7.26007C23.813 7.11356 24.0117 7.03125 24.2189 7.03125C24.4261 7.03125 24.6248 7.11356 24.7713 7.26007C24.9178 7.40659 25.0002 7.6053 25.0002 7.8125C25.0002 11.2262 24.1009 13.6052 22.3273 14.8835C21.2338 15.6717 20.0137 15.8856 19.0114 15.8856Z" fill="#4D5E78"/>
<path d="M37.8341 8.12888C37.7196 8.9062 37.4714 9.65785 37.1007 10.3506C37.0664 10.4102 37.017 10.4597 36.9575 10.4941C36.8981 10.5286 36.8305 10.5468 36.7618 10.5469C36.6794 10.5468 36.5991 10.5209 36.5323 10.4726L33.1339 8.00779L29.4278 5.31931C29.3857 5.28836 29.3501 5.24939 29.3232 5.20464C29.2962 5.15989 29.2783 5.11025 29.2706 5.05857C29.2631 5.00691 29.2661 4.95428 29.2794 4.90379C29.2926 4.8533 29.3159 4.80598 29.3477 4.76463C29.4044 4.69139 30.7423 2.98631 32.7862 2.75877C33.9913 2.62498 35.1729 3.03123 36.3009 3.9658C36.7011 4.29296 37.0414 4.68717 37.3067 5.13084C37.8135 5.98826 37.9942 7.00291 37.8341 8.12888Z" fill="#FFB531"/>
<path d="M37.834 8.12891C37.7195 8.90623 37.4714 9.65787 37.1006 10.3506C37.0663 10.4102 37.017 10.4597 36.9575 10.4942C36.898 10.5286 36.8305 10.5468 36.7617 10.5469C36.6793 10.5469 36.599 10.5209 36.5322 10.4727L33.1338 8.00781C34.6479 7.24099 36.0515 6.27327 37.3066 5.13086C37.8135 5.98828 37.9941 7.00293 37.834 8.12891Z" fill="#FCAC1F"/>
<path d="M70.656 33L64.44 24.096L70.656 16.2H73.416L67.032 24.048L73.488 33H70.656ZM61.92 33V16.2H64.2V33H61.92ZM74.9618 32.976L79.5458 26.016C80.0498 25.256 80.4818 24.564 80.8418 23.94C81.2018 23.316 81.4738 22.74 81.6578 22.212C81.8498 21.676 81.9458 21.168 81.9458 20.688C81.9458 19.856 81.7098 19.196 81.2378 18.708C80.7738 18.22 80.1378 17.976 79.3298 17.976C78.5298 17.976 77.7898 18.148 77.1098 18.492C76.4378 18.836 75.8178 19.296 75.2498 19.872L74.9618 17.472C75.5138 17.024 76.1778 16.64 76.9538 16.32C77.7378 16 78.6098 15.84 79.5698 15.84C80.5938 15.84 81.4538 16.044 82.1498 16.452C82.8458 16.86 83.3698 17.412 83.7218 18.108C84.0738 18.804 84.2498 19.584 84.2498 20.448C84.2498 21.192 84.1498 21.9 83.9498 22.572C83.7498 23.236 83.4498 23.928 83.0498 24.648C82.6498 25.368 82.1538 26.176 81.5618 27.072L79.0178 30.912H84.8978V32.976H74.9618ZM90.9797 33.24C89.9397 33.24 89.0757 33.116 88.3877 32.868C87.7077 32.62 87.2277 32.4 86.9477 32.208L87.2117 30.12C87.4677 30.344 87.9197 30.6 88.5677 30.888C89.2157 31.176 89.9877 31.32 90.8837 31.32C91.6437 31.32 92.2237 31.192 92.6237 30.936C93.0317 30.68 93.2357 30.32 93.2357 29.856C93.2357 29.448 93.1037 29.12 92.8397 28.872C92.5837 28.616 92.2717 28.416 91.9037 28.272C91.5437 28.12 91.2037 28 90.8837 27.912C90.3477 27.768 89.7917 27.588 89.2157 27.372C88.6477 27.148 88.1677 26.816 87.7757 26.376C87.3837 25.936 87.1877 25.32 87.1877 24.528C87.1877 23.928 87.3317 23.36 87.6197 22.824C87.9077 22.28 88.3757 21.84 89.0237 21.504C89.6717 21.168 90.5317 21 91.6037 21C92.3877 21 93.0237 21.084 93.5117 21.252C94.0077 21.412 94.4357 21.584 94.7957 21.768L94.5317 23.736C94.1877 23.448 93.7877 23.204 93.3317 23.004C92.8757 22.804 92.3157 22.704 91.6517 22.704C90.9797 22.704 90.4317 22.832 90.0077 23.088C89.5837 23.336 89.3717 23.736 89.3717 24.288C89.3717 24.84 89.5957 25.232 90.0437 25.464C90.4997 25.696 91.1877 25.952 92.1077 26.232C92.3957 26.312 92.7277 26.428 93.1037 26.58C93.4877 26.732 93.8597 26.936 94.2197 27.192C94.5797 27.448 94.8757 27.784 95.1077 28.2C95.3477 28.608 95.4677 29.12 95.4677 29.736C95.4677 30.256 95.3437 30.788 95.0957 31.332C94.8477 31.868 94.3997 32.32 93.7517 32.688C93.1037 33.056 92.1797 33.24 90.9797 33.24ZM97.5572 33V15H99.7172V26.544L104.037 21.24H106.677L101.997 26.712L106.797 33H104.157L99.7172 27.024V33H97.5572ZM108.339 33V21.24H110.499V33H108.339ZM108.339 18.6V16.2H110.499V18.6H108.339ZM113.425 33V21.24H115.585V33H113.425ZM113.425 18.6V16.2H115.585V18.6H113.425ZM118.511 33V21.24H120.191L120.623 23.496L119.783 23.136C120.575 22.256 121.347 21.68 122.099 21.408C122.859 21.136 123.599 21 124.319 21C126.039 21 127.267 21.496 128.003 22.488C128.747 23.48 129.119 24.824 129.119 26.52V33H126.959V26.52C126.959 25.272 126.727 24.36 126.263 23.784C125.799 23.208 125.007 22.92 123.887 22.92C123.095 22.92 122.367 23.096 121.703 23.448C121.047 23.792 120.615 24.344 120.407 25.104L120.671 23.784V33H118.511ZM136.669 39C135.597 39 134.637 38.868 133.789 38.604C132.949 38.34 132.285 37.948 131.797 37.428C131.317 36.908 131.077 36.264 131.077 35.496C131.077 34.856 131.257 34.304 131.617 33.84C131.985 33.384 132.485 33.016 133.117 32.736C132.741 32.552 132.453 32.336 132.253 32.088C132.061 31.832 131.965 31.552 131.965 31.248C131.965 30.888 132.073 30.564 132.289 30.276C132.513 29.98 132.869 29.736 133.357 29.544C132.701 29.136 132.197 28.588 131.845 27.9C131.493 27.204 131.317 26.432 131.317 25.584C131.317 24.728 131.509 23.956 131.893 23.268C132.277 22.572 132.829 22.02 133.549 21.612C134.277 21.204 135.149 21 136.165 21C136.709 21 137.221 21.08 137.701 21.24C138.189 21.4 138.637 21.624 139.045 21.912C139.405 21.704 139.829 21.532 140.317 21.396C140.813 21.26 141.365 21.192 141.973 21.192C142.013 21.192 142.045 21.192 142.069 21.192C142.101 21.192 142.133 21.192 142.165 21.192L141.901 22.632C141.805 22.632 141.713 22.632 141.625 22.632C141.537 22.632 141.445 22.632 141.349 22.632C141.269 22.632 141.085 22.644 140.797 22.668C140.509 22.692 140.245 22.736 140.005 22.8C140.333 23.184 140.585 23.616 140.761 24.096C140.945 24.568 141.037 25.064 141.037 25.584C141.037 26.48 140.841 27.284 140.449 27.996C140.065 28.7 139.509 29.26 138.781 29.676C138.053 30.084 137.181 30.288 136.165 30.288C135.877 30.288 135.601 30.272 135.337 30.24C135.073 30.2 134.821 30.144 134.581 30.072C134.213 30.192 134.029 30.4 134.029 30.696C134.029 30.872 134.133 31.028 134.341 31.164C134.549 31.292 134.885 31.392 135.349 31.464L138.493 31.968C139.765 32.168 140.745 32.536 141.433 33.072C142.129 33.608 142.477 34.368 142.477 35.352C142.477 36.168 142.237 36.844 141.757 37.38C141.285 37.924 140.613 38.328 139.741 38.592C138.869 38.864 137.845 39 136.669 39ZM136.861 37.08C137.965 37.08 138.813 36.936 139.405 36.648C139.997 36.368 140.293 35.952 140.293 35.4C140.293 34.968 140.105 34.628 139.729 34.38C139.361 34.132 138.829 33.944 138.133 33.816L134.785 33.252C134.345 33.444 133.961 33.7 133.633 34.02C133.305 34.348 133.141 34.728 133.141 35.16C133.141 35.832 133.477 36.32 134.149 36.624C134.829 36.928 135.733 37.08 136.861 37.08ZM136.165 28.56C137.077 28.56 137.773 28.288 138.253 27.744C138.733 27.192 138.973 26.48 138.973 25.608C138.973 24.768 138.733 24.08 138.253 23.544C137.773 23 137.077 22.728 136.165 22.728C135.253 22.728 134.561 23 134.089 23.544C133.617 24.08 133.381 24.768 133.381 25.608C133.381 26.48 133.617 27.192 134.089 27.744C134.561 28.288 135.253 28.56 136.165 28.56Z" fill="#313B4C"/>
</svg>
